<svg width="514" height="453" xmlns="http://www.w3.org/2000/svg" xmlns:xlink="http://www.w3.org/1999/xlink" xml:space="preserve" overflow="hidden"><g transform="translate(-265 -198)"><rect x="401.5" y="243.5" width="239" height="399" stroke="#000000" stroke-width="4.58333" stroke-miterlimit="8" fill="#FFFFFF"/><path d="M586 207 525 285 464 207Z" stroke="#000000" stroke-width="13.75" stroke-miterlimit="8" fill="#FFFFFF" fill-rule="evenodd"/><path d="M525.324 299.762 600.515 210.215 640.314 243.633 565.123 333.18Z" stroke="#000000" stroke-width="13.75" stroke-miterlimit="8" fill="#FFFFFF" fill-rule="evenodd"/><rect x="0" y="0" width="116.929" height="51.9685" stroke="#000000" stroke-width="13.75" stroke-miterlimit="8" fill="#FFFFFF" transform="matrix(-0.64305 -0.765825 -0.765825 0.64305 526.492 298.026)"/><path d="M523.313 298 485.934 330.034 504.192 376.716 459 534.147 516.815 628 572 532.018 535.936 376.716 562.91 333.061 523.313 298Z" stroke="#000000" stroke-width="13.75" stroke-miterlimit="8" fill="#FFFFFF" fill-rule="evenodd"/><path d="M405.732 244 274 301.328 345.021 640.707 684.088 643 770 301.328 645.141 247.44 551.21 640.707 472.171 640.707 405.732 244Z" stroke="#000000" stroke-width="13.75" stroke-miterlimit="8" fill="#FFFFFF" fill-rule="evenodd"/><rect x="593" y="566" width="75.9999" height="37.9998" stroke="#000000" stroke-width="13.75" stroke-miterlimit="8" fill="#FFFFFF"/></g></svg>